<?xml version="1.0" standalone="no"?>
<!DOCTYPE svg PUBLIC "-//W3C//DTD SVG 20010904//EN"
 "http://www.w3.org/TR/2001/REC-SVG-20010904/DTD/svg10.dtd">
<svg version="1.0" xmlns="http://www.w3.org/2000/svg"
 width="256.000000pt" height="256.000000pt" viewBox="0 0 256.000000 256.000000"
 preserveAspectRatio="xMidYMid meet">
<metadata>
Created by potrace 1.11, written by Peter Selinger 2001-2013
</metadata>
<g transform="translate(0.000000,256.000000) scale(0.100000,-0.100000)"
fill="#000000" stroke="none">
<path d="M1188 2528 c-2 -5 -28 -15 -58 -24 -75 -21 -72 -20 -102 -32 -44 -19
-72 -29 -83 -32 -5 -1 -19 -7 -30 -13 -11 -6 -22 -12 -25 -12 -22 -4 -50 -18
-50 -26 0 -5 -9 -9 -19 -9 -10 0 -22 -7 -25 -16 -4 -9 -13 -14 -22 -10 -9 4
-13 2 -8 -5 4 -7 1 -10 -7 -7 -16 5 -101 -35 -119 -57 -7 -8 -17 -15 -22 -15
-5 0 -21 -9 -35 -20 -14 -11 -29 -18 -33 -15 -4 3 -10 -1 -13 -9 -4 -10 4 -18
24 -25 16 -5 29 -15 29 -22 0 -7 -4 -8 -12 -2 -18 12 -68 16 -68 5 0 -5 13
-12 29 -15 16 -3 35 -12 42 -20 8 -7 22 -16 32 -20 9 -3 17 -14 17 -22 0 -9 5
-13 10 -10 6 3 10 -1 10 -9 0 -9 -4 -16 -10 -16 -5 0 -10 -5 -10 -11 0 -5 4
-8 9 -4 5 3 11 -5 13 -17 3 -21 4 -21 9 4 4 15 2 25 -2 22 -5 -3 -6 2 -2 11 8
22 23 -1 16 -24 -4 -13 -2 -13 10 2 13 15 14 12 12 -32 -2 -43 0 -48 19 -47
12 1 20 -4 18 -12 -1 -6 1 -11 5 -11 21 3 33 -2 27 -13 -4 -7 -3 -8 5 -4 6 4
9 11 6 16 -8 13 21 6 39 -9 9 -7 16 -19 16 -25 0 -6 13 -25 30 -42 16 -18 26
-35 23 -38 -4 -3 0 -6 8 -6 10 0 15 -12 16 -36 1 -40 16 -63 28 -43 6 8 4 10
-5 4 -10 -6 -12 -4 -7 8 3 9 1 18 -6 21 -9 3 -9 5 1 5 7 1 18 -11 25 -26 6
-16 16 -32 22 -36 6 -5 3 -7 -7 -3 -10 3 -20 0 -24 -6 -4 -6 -3 -8 3 -5 13 8
53 -21 53 -39 0 -8 6 -14 13 -14 8 0 7 -4 -3 -10 -10 -6 -11 -10 -3 -10 7 0
22 -19 33 -42 20 -41 24 -52 34 -97 2 -10 9 -36 15 -57 15 -52 14 -75 -4 -117
l-14 -35 -73 19 c-87 22 -119 24 -218 15 -108 -10 -167 -33 -217 -84 -59 -60
-78 -127 -69 -237 4 -44 8 -88 9 -97 1 -10 5 -18 10 -18 4 0 6 -4 3 -9 -4 -5
-2 -11 3 -13 15 -6 24 -48 9 -49 -7 0 -4 -4 7 -8 11 -5 20 -12 20 -17 0 -5 4
-15 8 -21 6 -9 3 -11 -9 -6 -12 4 -15 3 -10 -5 4 -7 14 -12 22 -12 8 0 12 -4
9 -10 -3 -5 -1 -10 6 -10 6 0 9 -8 6 -20 -3 -11 -2 -18 3 -15 7 4 42 -56 40
-70 0 -3 4 -11 10 -18 6 -6 22 -29 36 -51 21 -32 23 -43 15 -67 -21 -60 0 -96
103 -173 42 -31 76 -60 76 -64 0 -14 113 -149 137 -165 10 -6 6 -14 -14 -31
-14 -12 -23 -27 -20 -33 9 -14 297 -6 337 9 25 10 73 21 102 23 23 2 154 67
168 84 3 3 32 24 65 46 33 22 66 48 73 57 7 10 17 18 23 18 19 0 180 156 247
239 38 47 113 173 129 216 6 17 14 39 19 50 13 36 15 49 19 122 5 82 -11 157
-45 206 -30 44 -147 120 -201 131 -111 22 -136 26 -165 26 -31 0 -34 2 -35 33
-3 102 -6 173 -8 177 -6 13 -7 50 -1 50 18 0 -7 516 -29 598 -5 17 -6 32 -1
32 8 0 0 32 -22 90 -6 14 -12 42 -14 63 -8 87 -83 191 -146 204 -15 3 -28 9
-28 13 0 20 -256 37 -262 18z m-463 -509 c-5 -15 -4 -19 4 -15 6 4 23 -2 37
-13 15 -12 22 -21 17 -21 -5 0 -15 6 -22 13 -11 10 -13 9 -8 -6 4 -11 3 -16
-4 -12 -6 4 -8 13 -5 21 6 16 -10 19 -19 4 -11 -18 -26 0 -15 19 5 10 6 21 3
25 -3 3 -1 6 6 6 8 0 10 -7 6 -21z"/>
<path d="M794 1943 c4 -7 2 -13 -3 -13 -20 0 -11 -16 9 -17 24 -2 26 10 3 28
-11 10 -14 10 -9 2z"/>
<path d="M819 1891 c7 -5 9 -11 5 -13 -5 -3 -4 -3 3 -2 7 2 15 -1 18 -6 4 -6
1 -10 -6 -10 -7 0 -2 -8 9 -19 12 -10 18 -21 14 -25 -4 -4 -2 -7 3 -6 21 5 29
-1 15 -10 -9 -6 -10 -10 -3 -10 23 0 22 17 -3 43 -14 15 -22 27 -18 27 4 0 -1
9 -11 20 -10 11 -23 20 -29 20 -6 0 -5 -4 3 -9z"/>
<path d="M500 851 c0 -6 4 -13 10 -16 6 -3 7 1 4 9 -7 18 -14 21 -14 7z"/>
</g>
</svg>
